<svg width="48" height="53" viewBox="0 0 48 53" fill="none" xmlns="http://www.w3.org/2000/svg">
<path d="M14.2335 35.5429L14.2283 35.5361L8.81746 28.6007C8.7212 28.4774 8.59807 28.3775 8.45745 28.3089C8.31683 28.2402 8.16241 28.2045 8.00592 28.2045H8.00582C7.84936 28.2045 7.69497 28.2402 7.55436 28.3088C7.41376 28.3774 7.29064 28.4772 7.19438 28.6005L1.8094 35.4995C1.79759 35.5145 1.78623 35.5299 1.77533 35.5457C0.629863 36.9641 0 38.7461 0 40.5735C0 44.988 3.59142 48.5793 8.00582 48.5793C12.4202 48.5793 16.0116 44.9879 16.0116 40.5735C16.0116 38.7466 15.3803 36.9614 14.2335 35.5429ZM8.00582 46.5207C4.7266 46.5207 2.05871 43.8528 2.05871 40.5736C2.05871 39.1941 2.54158 37.8499 3.41839 36.7885C3.44176 36.7603 3.46347 36.731 3.48334 36.7009L8.00571 30.9071L12.5874 36.7796C12.5974 36.7932 12.6077 36.8065 12.6184 36.8196C13.4916 37.891 13.9531 39.1891 13.9531 40.5736C13.953 43.8528 11.2851 46.5207 8.00582 46.5207ZM40.5566 12.3194V9.36731C40.5566 8.87167 40.2062 8.45808 39.7396 8.36019V3.80879C39.7396 3.24038 39.2787 2.77943 38.7103 2.77943H33.7694C33.201 2.77943 32.74 3.24038 32.74 3.80879V8.36019C32.2735 8.45808 31.923 8.87178 31.923 9.36731V12.3209C28.2082 12.8252 25.3351 16.0158 25.3351 19.8667V47.5564C25.3351 50.3944 27.644 52.7032 30.4819 52.7032H42.0107C44.8486 52.7032 47.1575 50.3944 47.1575 47.5564V19.8667C47.1576 16.0114 44.2778 12.818 40.5566 12.3194ZM34.7987 4.83814H37.6809V8.33795H34.7987V4.83814ZM33.9818 10.3967H38.4979V12.2495H33.9818V10.3967ZM27.3939 24.7047H34.9981C35.5657 24.7047 36.0275 25.1665 36.0275 25.7341V42.2038C36.0275 42.7714 35.5657 43.2331 34.9981 43.2331H27.3939V24.7047ZM45.0989 47.5564C45.0989 49.2592 43.7136 50.6445 42.0108 50.6445H30.482C28.7793 50.6445 27.3939 49.2592 27.3939 47.5564V45.2918H34.9981C36.7009 45.2918 38.0862 43.9065 38.0862 42.2038V25.7341C38.0862 24.0313 36.7009 22.646 34.9981 22.646H27.3939V19.8667C27.3939 16.8018 29.8876 14.3082 32.9525 14.3082H39.5403C42.6053 14.3082 45.0989 16.8018 45.0989 19.8667V47.5564ZM8.73326 23.9894C8.54191 23.7969 8.27633 23.6878 8.00561 23.6878C7.73489 23.6878 7.46932 23.7969 7.27786 23.9894C7.08535 24.1828 6.97696 24.4443 6.97625 24.7172C6.97625 24.9879 7.08629 25.2535 7.27786 25.4448C7.46932 25.6363 7.73489 25.7465 8.00561 25.7465C8.27633 25.7465 8.54191 25.6364 8.73326 25.4448C8.92564 25.2514 9.03404 24.99 9.03497 24.7172C9.03497 24.4453 8.92483 24.1809 8.73326 23.9894ZM8.73326 19.7957C8.54191 19.6044 8.27633 19.4941 8.00561 19.4941C7.73489 19.4941 7.46932 19.6043 7.27786 19.7957C7.0864 19.9872 6.97625 20.2528 6.97625 20.5235C6.97625 20.7942 7.08629 21.0598 7.27786 21.2512C7.46932 21.4437 7.73489 21.5528 8.00561 21.5528C8.27633 21.5528 8.54191 21.4436 8.73326 21.2512C8.92472 21.0598 9.03497 20.7942 9.03497 20.5235C9.03497 20.2528 8.92483 19.9872 8.73326 19.7957ZM8.73326 15.6033C8.53995 15.4107 8.27844 15.3023 8.00561 15.3015C7.73489 15.3015 7.46932 15.4117 7.27786 15.6033C7.08551 15.7967 6.97715 16.0581 6.97625 16.3309C6.9771 16.6037 7.08547 16.8652 7.27786 17.0587C7.47035 17.2502 7.73489 17.3603 8.00561 17.3603C8.27633 17.3603 8.54191 17.2502 8.73326 17.0587C8.92564 16.8652 9.03404 16.6037 9.03497 16.3309C9.03497 16.0602 8.92483 15.7946 8.73326 15.6033ZM25.9853 5.57588H21.5062C20.9378 5.57588 20.4769 6.03683 20.4769 6.60524C20.4769 7.17365 20.9378 7.63459 21.5062 7.63459H25.9853C26.5538 7.63459 27.0146 7.17375 27.0146 6.60524C27.0146 6.03683 26.5537 5.57588 25.9853 5.57588ZM30.3426 5.87779C30.1512 5.6853 29.8856 5.57619 29.6149 5.57619C29.3442 5.57619 29.0786 5.6853 28.8871 5.87779C28.6947 6.0712 28.5863 6.33271 28.5855 6.60555C28.5855 6.87627 28.6957 7.14184 28.8871 7.3333C29.0786 7.52476 29.3442 7.6349 29.6149 7.6349C29.8856 7.6349 30.1512 7.52476 30.3426 7.3333C30.534 7.14081 30.6442 6.87627 30.6442 6.60555C30.6442 6.33483 30.5341 6.06925 30.3426 5.87779ZM18.3301 5.87676C18.1386 5.6853 17.873 5.57619 17.6023 5.57619C17.3316 5.57619 17.066 5.6853 16.8746 5.87676C16.6822 6.06925 16.5729 6.33483 16.5729 6.60555C16.5729 6.87627 16.6822 7.14081 16.8746 7.3333C17.066 7.52466 17.3316 7.6349 17.6023 7.6349C17.873 7.6349 18.1376 7.52476 18.3301 7.3333C18.5215 7.14184 18.6317 6.87627 18.6317 6.60555C18.6317 6.3338 18.5216 6.06925 18.3301 5.87676ZM27.7179 9.38049C27.4402 8.88454 26.8126 8.7078 26.3168 8.98562L22.2165 11.2828C21.7205 11.5607 21.5437 12.188 21.8216 12.6839C21.8877 12.8019 21.9763 12.9057 22.0824 12.9894C22.1886 13.073 22.3102 13.135 22.4403 13.1717C22.5704 13.2083 22.7065 13.219 22.8408 13.2031C22.975 13.1871 23.1048 13.1449 23.2227 13.0788L27.323 10.7815C27.8191 10.5037 27.9958 9.87653 27.7179 9.38049ZM27.323 2.42883L23.2227 0.131618C22.7272 -0.146411 22.0996 0.0304322 21.8216 0.526479C21.5437 1.02242 21.7204 1.64971 22.2165 1.92754L26.3168 4.22475C26.4347 4.29088 26.5645 4.33312 26.6988 4.34906C26.833 4.36501 26.9691 4.35434 27.0992 4.31767C27.2293 4.281 27.3509 4.21904 27.4571 4.13535C27.5632 4.05165 27.6519 3.94785 27.7179 3.82989C27.9958 3.33394 27.819 2.70666 27.323 2.42883Z" fill="#013E37"/>
<path d="M41.586 29.5423C41.0176 29.5423 40.5566 30.0033 40.5566 30.5717V38.3916C40.5566 38.9601 41.0176 39.421 41.586 39.421C42.1544 39.421 42.6154 38.9601 42.6154 38.3916V30.5717C42.6154 30.0033 42.1544 29.5423 41.586 29.5423ZM42.3141 26.2412C42.1206 26.0489 41.8591 25.9405 41.5863 25.9396C41.3135 25.9402 41.0519 26.0486 40.8587 26.2412C40.6662 26.4326 40.557 26.6982 40.557 26.9689C40.557 27.2397 40.6662 27.5052 40.8587 27.6966C41.052 27.8891 41.3135 27.9975 41.5863 27.9983C41.857 27.9983 42.1226 27.8882 42.3141 27.6966C42.5055 27.5052 42.6157 27.2397 42.6157 26.9689C42.6157 26.6982 42.5056 26.4326 42.3141 26.2412Z" fill="#013E37"/>
</svg>
