<svg width="3120" height="472" viewBox="0 0 3120 472" fill="none" xmlns="http://www.w3.org/2000/svg">
<path d="M103 359.5C84.6667 359.5 66 357.167 47 352.5C28.3333 348.167 12.6667 342.333 0 335L3 265.5H17.5L33 300C37.6667 309.667 42.5 317.667 47.5 324C52.5 330.333 59.1667 335.167 67.5 338.5C73.1667 340.833 78.5 342.5 83.5 343.5C88.8333 344.167 94.6667 344.5 101 344.5C121.333 344.5 137.333 339.333 149 329C161 318.333 167 304.333 167 287C167 271.333 162.833 259 154.5 250C146.5 241 133.5 232.333 115.5 224L95 215C67 202.667 44.8333 188.333 28.5 172C12.5 155.667 4.5 134 4.5 107C4.5 87 9.5 70 19.5 56C29.8333 41.6667 44 30.6667 62 23C80 15.3333 101 11.5 125 11.5C142.667 11.5 159.167 13.8333 174.5 18.5C190.167 23.1667 203.833 29.5 215.5 37.5L212 99.5H197.5L179 62C173.667 51 168.5 43.1667 163.5 38.5C158.833 33.5 153 30.3333 146 29C142 28.3333 138.5 27.8333 135.5 27.5C132.833 27.1667 129.167 27 124.5 27C108.167 27 94 31.8333 82 41.5C70.3333 50.8333 64.5 63.8333 64.5 80.5C64.5 96.5 69 109.5 78 119.5C87 129.5 100 138.333 117 146L139.5 155.5C171.833 169.5 195 184.5 209 200.5C223 216.167 230 236.333 230 261C230 290.333 218.833 314.167 196.5 332.5C174.5 350.5 143.333 359.5 103 359.5ZM253.336 351V341.5L260.836 339C272.169 335.667 277.836 327.5 277.836 314.5V55.5C277.836 48.8333 276.503 43.8333 273.836 40.5C271.169 36.8333 266.503 34.1667 259.836 32.5L253.336 30.5V21L340.836 0L347.336 4.5L345.336 75V314.5C345.336 327.833 351.003 336.167 362.336 339.5L369.336 341.5V351H253.336ZM436.336 351L345.836 226L434.336 144C438.669 140.333 441.169 136.333 441.836 132C442.503 127.333 439.669 124.167 433.336 122.5L425.336 120.5V111H503.336V120.5L488.836 124C481.503 126 475.503 128.833 470.836 132.5C466.169 135.833 460.669 140.333 454.336 146L399.336 197.5L484.336 314C489.669 321 494.503 326.5 498.836 330.5C503.169 334.167 509.003 337.333 516.336 340L521.336 341.5V351H436.336ZM596.469 76C585.469 76 576.135 72.5 568.469 65.5C560.802 58.5 556.969 49.6667 556.969 39C556.969 28 560.802 19.1667 568.469 12.5C576.135 5.5 585.469 2 596.469 2C607.469 2 616.802 5.5 624.469 12.5C632.135 19.1667 635.969 28 635.969 39C635.969 49.6667 632.135 58.5 624.469 65.5C616.802 72.5 607.469 76 596.469 76ZM538.969 351V341.5L546.469 339.5C553.135 337.5 557.635 334.5 559.969 330.5C562.302 326.5 563.635 321.167 563.969 314.5V222.5C563.969 212.167 563.969 202.667 563.969 194C563.969 185 563.802 175.833 563.469 166.5C563.469 159.833 562.135 154.667 559.469 151C557.135 147 552.635 144.333 545.969 143L538.969 141.5V132.5L626.469 103.5L632.469 109L630.969 180V315C630.969 321.667 632.135 327 634.469 331C637.135 335 641.635 338 647.969 340L653.469 341.5V351H538.969ZM675.676 351V341.5L683.676 339.5C694.676 336.167 700.176 328 700.176 315V167.5C699.842 160.5 698.676 155.167 696.676 151.5C694.676 147.5 690.342 144.833 683.676 143.5L675.676 141.5V132.5L756.676 103.5L762.676 109L766.176 140C778.176 129.333 791.509 120.667 806.176 114C821.176 107 835.842 103.5 850.176 103.5C872.176 103.5 889.009 109.5 900.676 121.5C912.676 133.5 918.676 151.833 918.676 176.5V315.5C918.676 328.5 924.676 336.667 936.676 340L942.176 341.5V351H827.176V341.5L834.676 339.5C845.676 335.833 851.176 327.667 851.176 315V166.5C851.176 154.833 848.676 146.333 843.676 141C838.676 135.667 830.342 133 818.676 133C802.342 133 785.342 140.167 767.676 154.5V315.5C767.676 328.5 773.509 336.667 785.176 340L790.176 341.5V351H675.676ZM1073.65 351V340.5L1084.15 337.5C1090.82 335.5 1094.98 332.667 1096.65 329C1098.65 325 1099.65 319.5 1099.65 312.5C1099.98 293.167 1100.15 273.833 1100.15 254.5C1100.15 235.167 1100.15 215.667 1100.15 196V175.5C1100.15 156.167 1100.15 136.833 1100.15 117.5C1100.15 98.1667 1099.98 78.8333 1099.65 59.5C1099.65 52.5 1098.82 47.1667 1097.15 43.5C1095.48 39.5 1091.32 36.5 1084.65 34.5L1073.65 31V20.5H1213.65C1252.65 20.5 1282.65 28 1303.65 43C1324.98 57.6666 1335.65 78.3333 1335.65 105C1335.65 119.667 1329.82 134.5 1318.15 149.5C1306.82 164.5 1289.32 176 1265.65 184L1333.65 316.5C1339.32 327.5 1348.15 335 1360.15 339L1369.65 341V351H1281.15L1206.65 195H1170.65C1170.65 218.667 1170.65 240 1170.65 259C1170.65 278 1170.82 295.833 1171.15 312.5C1171.15 319.167 1172.15 324.5 1174.15 328.5C1176.48 332.5 1180.82 335.333 1187.15 337L1199.15 340.5V351H1073.65ZM1170.65 180.5H1197.65C1221.32 180.5 1238.65 174.5 1249.65 162.5C1260.65 150.5 1266.15 132.167 1266.15 107.5C1266.15 82.8333 1260.82 64.6666 1250.15 53C1239.82 41 1222.98 35 1199.65 35H1171.15C1171.15 48 1170.98 61.3333 1170.65 75C1170.65 88.3333 1170.65 103.5 1170.65 120.5C1170.65 137.167 1170.65 157.167 1170.65 180.5ZM1502.82 103.5C1523.82 103.5 1541.82 107.833 1556.82 116.5C1571.82 125.167 1583.32 137.167 1591.32 152.5C1599.66 167.5 1603.82 184.833 1603.82 204.5C1603.82 208.833 1603.66 213 1603.32 217C1602.99 220.667 1602.32 224.167 1601.32 227.5H1450.82C1451.16 261.833 1457.49 286.5 1469.82 301.5C1482.49 316.5 1500.82 324 1524.82 324C1541.49 324 1554.99 321.333 1565.32 316C1575.66 310.333 1585.16 302.5 1593.82 292.5L1601.82 300C1591.82 318.333 1578.16 332.667 1560.82 343C1543.82 353 1523.49 358 1499.82 358C1476.16 358 1455.32 353 1437.32 343C1419.32 333 1405.16 318.667 1394.82 300C1384.82 281 1379.82 258.333 1379.82 232C1379.82 204.667 1385.66 181.5 1397.32 162.5C1409.32 143.5 1424.66 129 1443.32 119C1462.32 108.667 1482.16 103.5 1502.82 103.5ZM1500.32 118C1490.66 118 1482.16 120.833 1474.82 126.5C1467.82 131.833 1462.16 141.5 1457.82 155.5C1453.82 169.167 1451.49 188.5 1450.82 213.5H1540.32C1543.99 179.833 1542.66 155.5 1536.32 140.5C1529.99 125.5 1517.99 118 1500.32 118ZM1751.79 358C1729.12 358 1708.62 353.167 1690.29 343.5C1671.96 333.5 1657.46 319.167 1646.79 300.5C1636.46 281.5 1631.29 258.5 1631.29 231.5C1631.29 204.5 1637.12 181.5 1648.79 162.5C1660.46 143.5 1675.96 129 1695.29 119C1714.96 108.667 1736.46 103.5 1759.79 103.5C1778.79 103.5 1794.96 106.667 1808.29 113C1821.62 119.333 1831.79 127.5 1838.79 137.5C1845.79 147.167 1849.29 157.5 1849.29 168.5C1849.29 177.833 1846.46 185 1840.79 190C1835.46 195 1828.46 197.5 1819.79 197.5C1810.46 197.5 1802.79 194.167 1796.79 187.5C1791.12 180.833 1787.79 172.333 1786.79 162C1786.46 155.333 1786.46 149.667 1786.79 145C1787.46 140.333 1787.46 135.833 1786.79 131.5C1785.46 125.833 1783.12 122 1779.79 120C1776.79 118 1772.46 117 1766.79 117C1745.79 117 1729.62 125.5 1718.29 142.5C1707.29 159.167 1701.79 186.333 1701.79 224C1701.79 256.333 1707.96 281.167 1720.29 298.5C1732.62 315.833 1751.79 324.5 1777.79 324.5C1793.12 324.5 1805.79 321.667 1815.79 316C1825.79 310 1834.96 301.5 1843.29 290.5L1851.29 296.5C1842.96 316.5 1830.12 331.833 1812.79 342.5C1795.79 352.833 1775.46 358 1751.79 358ZM1997.45 358C1972.79 358 1951.12 352.833 1932.45 342.5C1914.12 332.167 1899.79 317.5 1889.45 298.5C1879.45 279.5 1874.45 256.833 1874.45 230.5C1874.45 204.167 1879.79 181.5 1890.45 162.5C1901.45 143.5 1916.12 129 1934.45 119C1953.12 108.667 1974.12 103.5 1997.45 103.5C2020.79 103.5 2041.62 108.667 2059.95 119C2078.62 129 2093.29 143.5 2103.95 162.5C2114.95 181.167 2120.45 203.833 2120.45 230.5C2120.45 256.833 2115.29 279.667 2104.95 299C2094.95 318 2080.79 332.667 2062.45 343C2044.12 353 2022.45 358 1997.45 358ZM1997.45 344C2009.45 344 2019.12 340.833 2026.45 334.5C2034.12 327.833 2039.62 316.333 2042.95 300C2046.29 283.667 2047.95 260.833 2047.95 231.5C2047.95 201.833 2046.29 178.833 2042.95 162.5C2039.62 145.833 2034.12 134.333 2026.45 128C2019.12 121.333 2009.45 118 1997.45 118C1985.45 118 1975.79 121.333 1968.45 128C1961.12 134.333 1955.62 145.833 1951.95 162.5C1948.62 178.833 1946.95 201.833 1946.95 231.5C1946.95 260.833 1948.62 283.667 1951.95 300C1955.62 316.333 1961.12 327.833 1968.45 334.5C1975.79 340.833 1985.45 344 1997.45 344ZM2251.51 352.5L2163.51 141C2159.84 131.667 2153.34 125.667 2144.01 123L2133.51 120.5V111H2260.01V120.5L2247.01 123.5C2236.34 126.167 2233.17 133 2237.51 144L2290.01 283.5L2339.01 145C2340.67 139.333 2341.01 134.833 2340.01 131.5C2339.34 127.833 2336.17 125.333 2330.51 124L2316.01 120.5V111H2392.01V120.5L2375.51 124.5C2365.84 126.833 2359.34 132.833 2356.01 142.5L2280.51 352.5H2251.51ZM2517.47 103.5C2538.47 103.5 2556.47 107.833 2571.47 116.5C2586.47 125.167 2597.97 137.167 2605.97 152.5C2614.31 167.5 2618.47 184.833 2618.47 204.5C2618.47 208.833 2618.31 213 2617.97 217C2617.64 220.667 2616.97 224.167 2615.97 227.5H2465.47C2465.81 261.833 2472.14 286.5 2484.47 301.5C2497.14 316.5 2515.47 324 2539.47 324C2556.14 324 2569.64 321.333 2579.97 316C2590.31 310.333 2599.81 302.5 2608.47 292.5L2616.47 300C2606.47 318.333 2592.81 332.667 2575.47 343C2558.47 353 2538.14 358 2514.47 358C2490.81 358 2469.97 353 2451.97 343C2433.97 333 2419.81 318.667 2409.47 300C2399.47 281 2394.47 258.333 2394.47 232C2394.47 204.667 2400.31 181.5 2411.97 162.5C2423.97 143.5 2439.31 129 2457.97 119C2476.97 108.667 2496.81 103.5 2517.47 103.5ZM2514.97 118C2505.31 118 2496.81 120.833 2489.47 126.5C2482.47 131.833 2476.81 141.5 2472.47 155.5C2468.47 169.167 2466.14 188.5 2465.47 213.5H2554.97C2558.64 179.833 2557.31 155.5 2550.97 140.5C2544.64 125.5 2532.64 118 2514.97 118ZM2643.94 351V341.5L2651.44 339C2658.1 337.333 2662.6 334.5 2664.94 330.5C2667.6 326.5 2668.94 321.167 2668.94 314.5V168C2668.6 160.667 2667.27 155.167 2664.94 151.5C2662.6 147.5 2658.1 144.833 2651.44 143.5L2643.94 141.5V132.5L2725.44 103.5L2731.44 109L2735.94 153V156.5C2740.94 147.167 2747.27 138.5 2754.94 130.5C2762.6 122.5 2770.94 116 2779.94 111C2788.94 106 2797.94 103.5 2806.94 103.5C2819.6 103.5 2829.1 106.833 2835.44 113.5C2841.77 120.167 2844.94 128.667 2844.94 139C2844.94 150.333 2841.77 159 2835.44 165C2829.1 170.667 2821.44 173.5 2812.44 173.5C2799.1 173.5 2787.6 167.5 2777.94 155.5L2776.94 154.5C2773.6 150.5 2769.77 148.333 2765.44 148C2761.44 147.333 2757.44 149.333 2753.44 154C2750.1 157.333 2746.94 161.333 2743.94 166C2741.27 170.333 2738.77 175.5 2736.44 181.5V312.5C2736.44 318.833 2737.77 324.167 2740.44 328.5C2743.1 332.5 2747.6 335.333 2753.94 337L2768.94 341.5V351H2643.94ZM2912.55 471.5C2899.21 471.5 2888.71 468.333 2881.05 462C2873.38 455.667 2869.55 447.333 2869.55 437C2869.55 427.667 2872.71 420.167 2879.05 414.5C2885.71 409.167 2893.05 406.5 2901.05 406.5C2909.38 406.5 2916.21 408 2921.55 411C2926.88 414 2931.55 418.333 2935.55 424L2938.55 428C2946.21 437.333 2953.38 437.167 2960.05 427.5C2964.38 421.833 2968.55 414.833 2972.55 406.5C2976.88 398.167 2981.55 387.167 2986.55 373.5L2891.55 146.5C2889.21 140.167 2886.55 135.333 2883.55 132C2880.55 128.333 2876.05 125.333 2870.05 123L2861.55 120V111H2985.05V120L2974.55 123C2967.21 125.333 2963.21 129 2962.55 134C2962.21 138.667 2963.38 144.833 2966.05 152.5L3017.05 285.5L3066.05 151.5C3068.71 144.167 3069.71 138 3069.05 133C3068.38 128 3064.21 124.667 3056.55 123L3045.55 120V111H3120.05V120L3109.05 123.5C3101.71 125.5 3096.38 128.5 3093.05 132.5C3090.05 136.167 3087.21 141.667 3084.55 149L3004.55 364C2991.21 400.667 2977.55 427.667 2963.55 445C2949.88 462.667 2932.88 471.5 2912.55 471.5Z" fill="#F9F9F9"/>
</svg>
