<svg width="20" height="20" viewBox="0 0 20 20" fill="none" xmlns="http://www.w3.org/2000/svg">
<path fill-rule="evenodd" clip-rule="evenodd" d="M16.9303 7C16.9621 6.92913 16.977 6.85189 16.9739 6.77432H17C16.8882 4.10591 14.6849 2 12.0049 2C9.325 2 7.12172 4.10591 7.00989 6.77432C6.9967 6.84897 6.9967 6.92535 7.00989 7H8.48184C8.49502 6.92535 8.49502 6.84897 8.48184 6.77432C8.48184 4.85682 10.0416 3.30238 11.9657 3.30238C13.8899 3.30238 15.4497 4.85682 15.4497 6.77432C15.4506 6.85153 15.4654 6.92794 15.4932 7H16.9303ZM20.1444 10.1201L20.9133 16.3148C21.4789 20.3536 19.2075 22 16.1585 22H7.86853C4.81062 22 2.46858 20.863 3.1049 16.3148L3.88264 10.1201C4.28034 7.84599 5.65022 7.00002 6.93171 7.00002H17.0865C18.3503 7.00002 19.676 7.90967 20.1444 10.1201ZM9.09668 12.1484C8.60858 12.1484 8.21289 11.7411 8.21289 11.2387C8.21289 10.7364 8.60858 10.3291 9.09668 10.3291C9.58478 10.3291 9.98047 10.7364 9.98047 11.2387C9.98047 11.7411 9.58478 12.1484 9.09668 12.1484ZM14.002 11.2389C14.002 11.7412 14.3977 12.1485 14.8858 12.1485C15.3739 12.1485 15.7696 11.7412 15.7696 11.2389C15.7696 10.7365 15.3739 10.3292 14.8858 10.3292C14.3977 10.3292 14.002 10.7365 14.002 11.2389Z" fill="#00A594"/>
</svg>
